<?xml version="1.0" encoding="UTF-8" standalone="no"?><!DOCTYPE svg PUBLIC "-//W3C//DTD SVG 1.1//EN" "http://www.w3.org/Graphics/SVG/1.1/DTD/svg11.dtd"><svg width="100%" height="100%" viewBox="0 0 30 31" version="1.1" xmlns="http://www.w3.org/2000/svg" xmlns:xlink="http://www.w3.org/1999/xlink" xml:space="preserve" xmlns:serif="http://www.serif.com/" style="fill-rule:evenodd;clip-rule:evenodd;stroke-linecap:round;stroke-linejoin:round;"><rect id="icon-company-reviews--xs--colour" x="0" y="0.723" width="30" height="30" style="fill:none;"/><g><g><path d="M16.073,6.281c-1.297,-1.232 -6.553,-1.152 -8.734,-0.955c-1.578,0.143 -2.445,2.301 -2.113,3.955c0.339,1.694 1.307,1.957 3.015,0.336c1.914,-1.815 5.541,-1.511 6.445,-1.439c0.7,0.056 2.701,-0.647 1.387,-1.897Z" style="fill:#5cd3cb;"/><path d="M22.817,26.004c-1.978,0.355 -3.389,0.765 -5.597,0.166c-2.018,-0.546 -1.745,-2.352 -0.841,-2.66c0.966,-0.329 1.16,-0.361 3.28,-0.731c1.99,-0.347 1.119,-1.551 2.073,-2.345c1.309,-1.09 2.13,-0.637 2.268,1.166c0.064,0.835 0.35,4.128 -1.183,4.404Z" style="fill:#feef7c;"/></g><g><path d="M12,24.723l-3.3,0c-0.662,0 -1.2,-0.528 -1.2,-1.179l0,-7.071" style="fill:none;fill-rule:nonzero;stroke:#000;stroke-width:1.5px;"/><path d="M22.5,16.473l0,7.071c0,0.651 -0.538,1.179 -1.2,1.179l-3.3,0" style="fill:none;fill-rule:nonzero;stroke:#000;stroke-width:1.5px;"/><path d="M22.318,6.723l-14.636,0c-0.282,0 -0.525,0.183 -0.587,0.44l-1.095,4.622c0,0.933 0.806,1.688 1.8,1.688c0.994,0 1.8,-0.755 1.8,-1.688c0,0.933 0.806,1.688 1.8,1.688c0.994,0 1.8,-0.755 1.8,-1.688c0,0.933 0.806,1.688 1.8,1.688c0.994,0 1.8,-0.755 1.8,-1.688c0,0.933 0.806,1.688 1.8,1.688c0.994,0 1.8,-0.755 1.8,-1.688c0,0.933 0.806,1.688 1.8,1.688c0.994,0 1.8,-0.755 1.8,-1.688l-1.096,-4.622c-0.061,-0.257 -0.304,-0.44 -0.586,-0.44Z" style="fill:none;fill-rule:nonzero;stroke:#000;stroke-width:1.5px;"/></g></g></svg>