<?xml version="1.0" encoding="iso-8859-1"?>
<!-- Generator: Adobe Illustrator 23.0.1, SVG Export Plug-In . SVG Version: 6.00 Build 0)  -->
<svg version="1.1" id="Layer_2" xmlns="http://www.w3.org/2000/svg" xmlns:xlink="http://www.w3.org/1999/xlink" x="0px" y="0px"
	 viewBox="0 0 182.167 28.667" style="enable-background:new 0 0 182.167 28.667;" xml:space="preserve">
<g>
	<path d="M32.19,5.603c0-0.617,0.505-1.122,1.094-1.122h7.348c2.412,0,4.347,0.729,5.581,1.963c0.953,0.954,1.514,2.328,1.514,3.87
		v0.056c0,3.226-2.187,5.104-5.244,5.694l4.88,6.282c0.224,0.252,0.364,0.505,0.364,0.813c0,0.589-0.561,1.094-1.122,1.094
		c-0.449,0-0.785-0.252-1.038-0.589l-5.525-7.18h-5.637v6.647c0,0.617-0.505,1.122-1.122,1.122c-0.589,0-1.094-0.505-1.094-1.122
		V5.603z M40.436,14.494c2.945,0,5.048-1.515,5.048-4.039v-0.056c0-2.412-1.851-3.871-5.02-3.871h-6.058v7.966H40.436z"/>
	<path d="M52.185,22.991V5.603c0-0.617,0.505-1.122,1.094-1.122h12.2c0.561,0,1.01,0.449,1.01,1.01c0,0.561-0.449,1.01-1.01,1.01
		H54.4v6.702h9.816c0.561,0,1.01,0.477,1.01,1.01c0,0.561-0.449,1.01-1.01,1.01H54.4v6.871h11.218c0.561,0,1.01,0.449,1.01,1.01
		s-0.449,1.01-1.01,1.01h-12.34C52.689,24.113,52.185,23.608,52.185,22.991z"/>
	<path d="M77.002,23.412L69.43,5.939c-0.084-0.168-0.113-0.308-0.113-0.505c0-0.561,0.505-1.094,1.122-1.094
		c0.561,0,0.954,0.365,1.15,0.841l6.787,16.266l6.815-16.322c0.196-0.393,0.589-0.785,1.094-0.785c0.617,0,1.094,0.505,1.094,1.066
		c0,0.168-0.028,0.308-0.084,0.449l-7.601,17.556c-0.252,0.561-0.645,0.926-1.29,0.926h-0.113
		C77.648,24.337,77.227,23.972,77.002,23.412z"/>
	<path d="M91.472,5.462c0-0.617,0.505-1.122,1.094-1.122c0.617,0,1.122,0.505,1.122,1.122v17.669c0,0.617-0.505,1.122-1.122,1.122
		c-0.589,0-1.094-0.505-1.094-1.122V5.462z"/>
	<path d="M99.155,22.991V5.603c0-0.617,0.505-1.122,1.094-1.122h12.2c0.561,0,1.01,0.449,1.01,1.01c0,0.561-0.449,1.01-1.01,1.01
		H101.37v6.702h9.816c0.561,0,1.01,0.477,1.01,1.01c0,0.561-0.449,1.01-1.01,1.01h-9.816v6.871h11.218c0.561,0,1.01,0.449,1.01,1.01
		s-0.449,1.01-1.01,1.01h-12.34C99.66,24.113,99.155,23.608,99.155,22.991z"/>
	<path d="M116.485,5.967c-0.056-0.168-0.112-0.336-0.112-0.505c0-0.589,0.533-1.122,1.15-1.122c0.561,0,0.982,0.421,1.15,0.925
		l5.413,15.594l5.132-15.65c0.168-0.505,0.505-0.869,1.094-0.869h0.141c0.561,0,0.925,0.365,1.094,0.869l5.132,15.65l5.441-15.65
		c0.168-0.505,0.533-0.869,1.066-0.869c0.589,0,1.122,0.533,1.122,1.094c0,0.168-0.085,0.365-0.141,0.533l-6.282,17.444
		c-0.196,0.561-0.589,0.954-1.15,0.954h-0.168c-0.561,0-0.954-0.393-1.15-0.954l-5.104-15.088l-5.076,15.088
		c-0.196,0.561-0.589,0.954-1.15,0.954h-0.168c-0.561,0-0.954-0.364-1.15-0.954L116.485,5.967z"/>
	<path d="M147.079,21.757c-0.252-0.168-0.421-0.477-0.421-0.841c0-0.617,0.477-1.094,1.066-1.094c0.28,0,0.533,0.112,0.673,0.252
		c1.851,1.57,3.702,2.328,6.198,2.328c2.637,0,4.375-1.402,4.375-3.337v-0.056c0-1.823-0.981-2.861-5.104-3.73
		c-4.516-0.981-6.591-2.44-6.591-5.665V9.557c0-3.085,2.72-5.356,6.45-5.356c2.58,0,4.459,0.645,6.254,1.935
		c0.224,0.168,0.477,0.477,0.477,0.897c0,0.589-0.477,1.066-1.066,1.066c-0.252,0-0.449-0.056-0.645-0.196
		c-1.655-1.206-3.253-1.711-5.076-1.711c-2.552,0-4.179,1.402-4.179,3.169v0.056c0,1.851,1.01,2.889,5.329,3.815
		c4.375,0.954,6.394,2.552,6.394,5.553v0.057c0,3.365-2.805,5.553-6.703,5.553C151.651,24.393,149.267,23.496,147.079,21.757z"/>
</g>
<g>
	<path d="M164.531,21.894c0.423,0,0.737,0.313,0.737,0.737v0.313c0,0.424-0.314,0.753-0.737,0.753c-0.439,0-0.753-0.329-0.753-0.753
		v-0.313C163.778,22.207,164.092,21.894,164.531,21.894z"/>
	<path d="M167.795,12.969c0-0.393,0.314-0.644,0.706-0.644c0.408,0,0.722,0.251,0.722,0.644v0.203c0,0.377-0.313,0.644-0.722,0.644
		c-0.392,0-0.706-0.267-0.706-0.644V12.969z M167.905,16.043c0-0.329,0.267-0.612,0.596-0.612c0.346,0,0.612,0.267,0.612,0.612
		v7.043c0,0.345-0.251,0.611-0.597,0.611c-0.345,0-0.611-0.267-0.611-0.611V16.043z"/>
	<path d="M171.42,19.604v-0.031c0-2.29,1.789-4.235,4.235-4.235c2.432,0,4.22,1.914,4.22,4.204v0.031
		c0,2.29-1.804,4.235-4.251,4.235C173.192,23.808,171.42,21.894,171.42,19.604z M178.636,19.604v-0.031
		c0-1.741-1.302-3.169-3.012-3.169c-1.757,0-2.965,1.428-2.965,3.138v0.031c0,1.741,1.286,3.152,2.996,3.152
		C177.412,22.725,178.636,21.314,178.636,19.604z"/>
</g>
<linearGradient id="SVGID_1_" gradientUnits="userSpaceOnUse" x1="14.4781" y1="26.5515" x2="14.4781" y2="2.1667">
	<stop  offset="0" style="stop-color:#33C886"/>
	<stop  offset="1" style="stop-color:#12CF6C"/>
</linearGradient>
<path style="fill:url(#SVGID_1_);" d="M14.478,2.167c-6.734,0-12.192,5.459-12.192,12.192c0,6.734,5.459,12.192,12.192,12.192
	s12.192-5.459,12.192-12.192C26.671,7.625,21.212,2.167,14.478,2.167z M20.202,22.894l-5.734-4.403l-5.693,4.403l2.212-7.006
	l-5.652-4.221h6.861l2.273-6.861l2.294,6.861h6.861l-5.632,4.241L20.202,22.894z"/>
<g>
</g>
<g>
</g>
<g>
</g>
<g>
</g>
<g>
</g>
<g>
</g>
<g>
</g>
<g>
</g>
<g>
</g>
<g>
</g>
<g>
</g>
<g>
</g>
<g>
</g>
<g>
</g>
<g>
</g>
</svg>
